<svg width="26" height="26" viewBox="0 0 26 26" fill="none" xmlns="http://www.w3.org/2000/svg">
<g clip-path="url(#clip0_234_488)">
<path d="M8.31934 22.1481C6.51378 21.3147 5.04677 20.0561 3.91829 18.372C2.78982 16.688 2.22559 14.787 2.22559 12.6689C2.22559 12.2175 2.24729 11.7748 2.29069 11.3408C2.33409 10.9068 2.40788 10.4814 2.51204 10.0647L1.31413 10.7679L0.272461 8.97099L5.24642 6.1064L8.111 11.0543L6.28809 12.096L4.88184 9.64807C4.69086 10.1168 4.54763 10.6029 4.45215 11.1064C4.35666 11.6099 4.30892 12.1307 4.30892 12.6689C4.30892 14.3529 4.76899 15.885 5.68913 17.2653C6.60927 18.6455 7.83322 19.6654 9.361 20.3252L8.31934 22.1481ZM16.2881 9.51786V7.43453H19.1266C18.328 6.44495 17.3645 5.67672 16.236 5.12984C15.1075 4.58297 13.9096 4.30953 12.6423 4.30953C11.6874 4.30953 10.7846 4.4571 9.93392 4.75224C9.08322 5.04738 8.30197 5.46404 7.59017 6.00224L6.5485 4.17932C7.41656 3.57168 8.36274 3.09425 9.38704 2.74703C10.4113 2.39981 11.4964 2.2262 12.6423 2.2262C14.0138 2.2262 15.3245 2.48227 16.5745 2.99443C17.8245 3.50658 18.9443 4.24877 19.9339 5.22099V3.7887H22.0173V9.51786H16.2881ZM15.611 25.1429L10.637 22.2783L13.5016 17.3304L15.2985 18.372L13.8141 20.9241C15.8627 20.629 17.5685 19.7002 18.9313 18.1377C20.2942 16.5752 20.9756 14.7436 20.9756 12.6429C20.9756 12.4519 20.9712 12.2739 20.9626 12.109C20.9539 11.9441 20.9322 11.7748 20.8975 11.6012H23.0068C23.0242 11.7748 23.0372 11.9441 23.0459 12.109C23.0546 12.2739 23.0589 12.4519 23.0589 12.6429C23.0589 14.9866 22.3601 17.083 20.9626 18.9319C19.565 20.7809 17.7464 22.0265 15.5068 22.6689L16.6527 23.346L15.611 25.1429Z"
fill="#FBFBFB"/>
</g>
<defs>
<clipPath id="clip0_234_488">
<rect width="25" height="25" fill="#FFF" transform="translate(0.142578 0.142822)"/>
</clipPath>
</defs>
</svg>
