<?xml version="1.0" encoding="UTF-8"?>
<svg id="Logos" xmlns="http://www.w3.org/2000/svg" viewBox="0 0 1786.76 944.36">
  <defs>
    <style>
      .cls-1 {
        fill: #fff;
      }
    </style>
  </defs>
  <path class="cls-1" d="M1339.18,643.77c-64.1,0-109.43-49.86-109.43-115.26s45.33-115.26,109.43-115.26,108.13,49.86,108.13,115.26-44.68,115.26-108.13,115.26ZM1328.82,712.4c51.8,0,95.83-20.07,123.67-62.16,5.18,40.79,34.97,55.69,72.52,55.69h29.79v-64.75h-12.95c-21.37,0-26.55-10.36-26.55-34.32v-255.76h-68.64v52.45c-23.31-36.91-67.34-58.92-117.85-58.92-90,0-172.88,75.11-172.88,183.89s82.88,183.89,172.88,183.89ZM975.29,623.7c0,58.28,36.26,82.23,79.64,82.23h83.53v-64.75h-60.87c-25.25,0-30.43-9.71-30.43-34.32v-191.01h91.3v-64.75h-91.3v-119.14h-71.87v391.74ZM648.3,705.93h71.87v-152.16h23.96l122.38,152.16h90.65l-156.05-192.96,119.79-161.88h-80.94l-97.77,136.62h-22.02v-255.76h-71.87v473.97ZM415.2,344.62c-100.36,0-183.24,75.11-183.24,183.89s82.88,183.89,183.24,183.89,183.24-75.11,183.24-183.89-82.88-183.89-183.24-183.89ZM415.2,643.77c-64.1,0-109.43-49.86-109.43-115.26s45.33-115.26,109.43-115.26,109.43,49.86,109.43,115.26-45.33,115.26-109.43,115.26Z"/>
</svg>