<svg width="24" height="24" viewBox="0 0 24 24" fill="none" xmlns="http://www.w3.org/2000/svg">
<path d="M11.9994 21.5239C11.2057 21.5239 10.5311 21.2462 9.97559 20.6906C9.42003 20.135 9.14225 19.4604 9.14225 18.6668C9.14225 18.5874 9.14622 18.5001 9.15416 18.4049C9.16209 18.3097 9.174 18.2224 9.18987 18.143L7.21368 17.0239C6.95971 17.2462 6.674 17.4168 6.35654 17.5358C6.03908 17.6549 5.69781 17.7144 5.33273 17.7144C4.53908 17.7144 3.86447 17.4366 3.30892 16.8811C2.75336 16.3255 2.47559 15.6509 2.47559 14.8573C2.47559 14.0636 2.75336 13.389 3.30892 12.8335C3.86447 12.2779 4.53908 12.0001 5.33273 12.0001C5.71368 12.0001 6.07082 12.0716 6.40416 12.2144C6.73749 12.3573 7.03908 12.5557 7.30892 12.8097L10.1423 11.3811C10.0946 11.016 10.1145 10.6589 10.2018 10.3097C10.2891 9.96045 10.4438 9.63505 10.6661 9.33346L9.85654 8.09537C9.74543 8.12711 9.63035 8.15092 9.5113 8.16679C9.39225 8.18267 9.26924 8.1906 9.14225 8.1906C8.3486 8.1906 7.674 7.91283 7.11844 7.35727C6.56289 6.80172 6.28511 6.12711 6.28511 5.33346C6.28511 4.53981 6.56289 3.86521 7.11844 3.30965C7.674 2.7541 8.3486 2.47632 9.14225 2.47632C9.9359 2.47632 10.6105 2.7541 11.1661 3.30965C11.7216 3.86521 11.9994 4.53981 11.9994 5.33346C11.9994 5.65092 11.9478 5.95648 11.8446 6.25013C11.7415 6.54378 11.6026 6.80965 11.428 7.04775L12.2613 8.28584C12.3883 8.2541 12.5073 8.23029 12.6184 8.21441C12.7296 8.19854 12.8486 8.1906 12.9756 8.1906C13.2454 8.1906 13.4994 8.22235 13.7375 8.28584C13.9756 8.34933 14.2057 8.44457 14.428 8.57156L15.9994 7.28584C15.9359 7.12711 15.8883 6.96441 15.8565 6.79775C15.8248 6.63108 15.8089 6.46045 15.8089 6.28584C15.8089 5.49219 16.0867 4.81759 16.6423 4.26203C17.1978 3.70648 17.8724 3.4287 18.6661 3.4287C19.4597 3.4287 20.1343 3.70648 20.6899 4.26203C21.2454 4.81759 21.5232 5.49219 21.5232 6.28584C21.5232 7.07949 21.2454 7.7541 20.6899 8.30965C20.1343 8.86521 19.4597 9.14299 18.6661 9.14299C18.3962 9.14299 18.1423 9.10727 17.9042 9.03584C17.6661 8.96441 17.4359 8.86521 17.2137 8.73822L15.6423 10.0477C15.7057 10.2065 15.7534 10.3692 15.7851 10.5358C15.8169 10.7025 15.8327 10.8731 15.8327 11.0477C15.8327 11.8414 15.555 12.516 14.9994 13.0716C14.4438 13.6271 13.7692 13.9049 12.9756 13.9049C12.5946 13.9049 12.2335 13.8335 11.8923 13.6906C11.551 13.5477 11.2454 13.3493 10.9756 13.0954L8.16606 14.5001C8.19781 14.643 8.20971 14.7858 8.20178 14.9287C8.19384 15.0716 8.174 15.2144 8.14225 15.3573L10.1423 16.5001C10.3962 16.2779 10.678 16.1073 10.9875 15.9882C11.297 15.8692 11.6343 15.8097 11.9994 15.8097C12.793 15.8097 13.4676 16.0874 14.0232 16.643C14.5788 17.1985 14.8565 17.8731 14.8565 18.6668C14.8565 19.4604 14.5788 20.135 14.0232 20.6906C13.4676 21.2462 12.793 21.5239 11.9994 21.5239ZM5.33273 15.8097C5.60257 15.8097 5.82876 15.7184 6.0113 15.5358C6.19384 15.3533 6.28511 15.1271 6.28511 14.8573C6.28511 14.5874 6.19384 14.3612 6.0113 14.1787C5.82876 13.9962 5.60257 13.9049 5.33273 13.9049C5.06289 13.9049 4.8367 13.9962 4.65416 14.1787C4.47162 14.3612 4.38035 14.5874 4.38035 14.8573C4.38035 15.1271 4.47162 15.3533 4.65416 15.5358C4.8367 15.7184 5.06289 15.8097 5.33273 15.8097ZM9.14225 6.28584C9.41209 6.28584 9.63828 6.19457 9.82082 6.01203C10.0034 5.82949 10.0946 5.6033 10.0946 5.33346C10.0946 5.06362 10.0034 4.83743 9.82082 4.65489C9.63828 4.47235 9.41209 4.38108 9.14225 4.38108C8.87241 4.38108 8.64622 4.47235 8.46368 4.65489C8.28114 4.83743 8.18987 5.06362 8.18987 5.33346C8.18987 5.6033 8.28114 5.82949 8.46368 6.01203C8.64622 6.19457 8.87241 6.28584 9.14225 6.28584ZM11.9994 19.6192C12.2692 19.6192 12.4954 19.5279 12.678 19.3454C12.8605 19.1628 12.9518 18.9366 12.9518 18.6668C12.9518 18.397 12.8605 18.1708 12.678 17.9882C12.4954 17.8057 12.2692 17.7144 11.9994 17.7144C11.7296 17.7144 11.5034 17.8057 11.3208 17.9882C11.1383 18.1708 11.047 18.397 11.047 18.6668C11.047 18.9366 11.1383 19.1628 11.3208 19.3454C11.5034 19.5279 11.7296 19.6192 11.9994 19.6192ZM12.9518 12.0001C13.2216 12.0001 13.4478 11.9089 13.6303 11.7263C13.8129 11.5438 13.9042 11.3176 13.9042 11.0477C13.9042 10.7779 13.8129 10.5517 13.6303 10.3692C13.4478 10.1866 13.2216 10.0954 12.9518 10.0954C12.6819 10.0954 12.4557 10.1866 12.2732 10.3692C12.0907 10.5517 11.9994 10.7779 11.9994 11.0477C11.9994 11.3176 12.0907 11.5438 12.2732 11.7263C12.4557 11.9089 12.6819 12.0001 12.9518 12.0001ZM18.6661 7.23822C18.9359 7.23822 19.1621 7.14695 19.3446 6.96441C19.5272 6.78187 19.6184 6.55568 19.6184 6.28584C19.6184 6.016 19.5272 5.78981 19.3446 5.60727C19.1621 5.42473 18.9359 5.33346 18.6661 5.33346C18.3962 5.33346 18.17 5.42473 17.9875 5.60727C17.805 5.78981 17.7137 6.016 17.7137 6.28584C17.7137 6.55568 17.805 6.78187 17.9875 6.96441C18.17 7.14695 18.3962 7.23822 18.6661 7.23822Z"
fill="#FBFBFB"/>
</svg>
