<svg width="26" height="26" viewBox="0 0 26 26" fill="none" xmlns="http://www.w3.org/2000/svg">
<path d="M7.27083 11.9585L13 2.5835L18.7292 11.9585H7.27083ZM18.7292 23.4168C17.4271 23.4168 16.3203 22.9611 15.4089 22.0496C14.4974 21.1382 14.0417 20.0314 14.0417 18.7293C14.0417 17.4272 14.4974 16.3205 15.4089 15.409C16.3203 14.4976 17.4271 14.0418 18.7292 14.0418C20.0312 14.0418 21.138 14.4976 22.0495 15.409C22.9609 16.3205 23.4167 17.4272 23.4167 18.7293C23.4167 20.0314 22.9609 21.1382 22.0495 22.0496C21.138 22.9611 20.0312 23.4168 18.7292 23.4168ZM3.625 22.896V14.5627H11.9583V22.896H3.625Z"
fill="#FBFBFB"/>
</svg>
