<svg width="26" height="26" viewBox="0 0 26 26" fill="inherit" xmlns="http://www.w3.org/2000/svg">
<path d="M8 17.2857C6.62121 17.2857 5.44318 16.817 4.46591 15.8795C3.48864 14.942 3 13.7961 3 12.442C3 11.2812 3.35606 10.247 4.06818 9.33929C4.7803 8.43155 5.71212 7.85119 6.86364 7.59821C7.24242 6.22917 8 5.12054 9.13636 4.27232C10.2727 3.42411 11.5606 3 13 3C14.7727 3 16.2765 3.6064 17.5114 4.8192C18.7462 6.03199 19.3636 7.50893 19.3636 9.25C20.4091 9.36905 21.2765 9.81176 21.9659 10.5781C22.6553 11.3445 23 12.2411 23 13.2679C23 14.3839 22.6023 15.3326 21.8068 16.1138C21.0114 16.8951 20.0455 17.2857 18.9091 17.2857H8ZM8 15.5H18.9091C19.5455 15.5 20.0833 15.2842 20.5227 14.8527C20.9621 14.4211 21.1818 13.8929 21.1818 13.2679C21.1818 12.6429 20.9621 12.1146 20.5227 11.683C20.0833 11.2515 19.5455 11.0357 18.9091 11.0357H17.5455V9.25C17.5455 8.01488 17.1023 6.96205 16.2159 6.09152C15.3295 5.22098 14.2576 4.78571 13 4.78571C11.7424 4.78571 10.6705 5.22098 9.78409 6.09152C8.89773 6.96205 8.45455 8.01488 8.45455 9.25H8C7.12121 9.25 6.37121 9.55506 5.75 10.1652C5.12879 10.7753 4.81818 11.5119 4.81818 12.375C4.81818 13.2381 5.12879 13.9747 5.75 14.5848C6.37121 15.1949 7.12121 15.5 8 15.5Z"
fill="inherit"/>
<path d="M12.3238 20.654C12.9315 20.2227 13.414 19.6904 13.7669 19.0631L14.6375 19.9337C14.7715 20.0677 14.9531 20.1429 15.1426 20.1429C15.332 20.1429 15.5137 20.0677 15.6477 19.9337L16.6269 18.9544L17.9141 19.9713C18.2127 20.2072 18.6438 20.1675 18.8944 19.8811L21.3944 17.024C21.642 16.741 21.6278 16.3145 21.3619 16.0485L19.9512 14.6378C19.8173 14.5039 19.6356 14.4286 19.4461 14.4286H13.9417C13.5922 13.6889 13.0701 13.0576 12.3874 12.5386C11.5344 11.89 10.5378 11.5715 9.42829 11.5715C8.05054 11.5715 6.85631 12.0619 5.8875 13.0307C4.91869 13.9995 4.42829 15.1937 4.42829 16.5715C4.42829 17.9492 4.91869 19.1435 5.8875 20.1123C6.85631 21.0811 8.05054 21.5715 9.42829 21.5715C10.4911 21.5715 11.4633 21.2647 12.3238 20.654ZM10.4411 17.5843C10.1599 17.8655 9.83625 18.0001 9.42829 18.0001C9.02033 18.0001 8.6967 17.8655 8.41551 17.5843C8.13432 17.3031 7.99972 16.9794 7.99972 16.5715C7.99972 16.1635 8.13432 15.8399 8.41551 15.5587C8.6967 15.2775 9.02033 15.1429 9.42829 15.1429C9.83625 15.1429 10.1599 15.2775 10.4411 15.5587C10.7223 15.8399 10.8569 16.1635 10.8569 16.5715C10.8569 16.9794 10.7223 17.3031 10.4411 17.5843Z"
fill="inherit" stroke="inherit" stroke-width="1.42857" stroke-linejoin="round"/>
<rect x="8.71387" y="15.8572" width="1.42857" height="1.42857"
fill="none"/>
</svg>
